<?xml version="1.0" encoding="utf-8"?>
<!-- Generator: Adobe Illustrator 17.1.0, SVG Export Plug-In . SVG Version: 6.00 Build 0)  -->
<!DOCTYPE svg PUBLIC "-//W3C//DTD SVG 1.1//EN" "http://www.w3.org/Graphics/SVG/1.1/DTD/svg11.dtd">
<svg version="1.1" id="Layer_1" xmlns="http://www.w3.org/2000/svg" xmlns:xlink="http://www.w3.org/1999/xlink" x="0px" y="0px"
	 viewBox="0 164.41 793.7 793.7" enable-background="new 0 164.41 793.7 793.7" xml:space="preserve">
<title>shopping cart</title>
<g>
	<title>Layer 1</title>
	<g id="layer1">
		<path id="path3847" fill="#FFFFFF" d="M74.114,232.169c-10.162-0.138-18.995,7.812-19.857,17.95
			c-0.862,10.118,6.454,19.442,16.459,21.051c0.017,0.004,0.04-0.004,0.059,0l95.234,16.22l150.097,384.458l-48.125,37.747
			c-0.239,0.197-0.458,0.417-0.655,0.656c-0.053,0.042-0.063,0.135-0.118,0.177c-0.061,0.058-0.121,0.118-0.179,0.179
			c-22.544,17.432-33.477,44.228-27.313,68.877c0.08,0.246,0.179,0.485,0.298,0.716c8.041,18.842,21.025,31.172,37.927,37.152
			c-17.877,3.881-31.366,19.89-31.366,38.881c0,21.865,17.909,39.774,39.776,39.774c21.865,0,39.774-17.909,39.774-39.774
			c0-14.833-8.269-27.811-20.394-34.649l336.571,0.954c-11.202,7.057-18.665,19.558-18.665,33.694
			c0,21.865,17.909,39.774,39.774,39.774c21.867,0,39.776-17.909,39.776-39.774c0-14.06-7.444-26.439-18.546-33.515l29.878,0.059
			c0.019,0,0.038,0,0.059,0c10.74,0.154,19.815-8.82,19.857-19.56c0.042-10.738-8.997-19.747-19.739-19.678h-0.059l-408.727-1.193
			c-0.057-0.002-0.122,0-0.179,0c-0.343-0.008-0.731-0.011-1.074,0c-0.04,0-0.08,0-0.12,0c-10.7,0.614-16.953-1.021-20.573-3.28
			c-3.62-2.259-5.145-5.192-6.143-9.185c-1.752-7.003,1.321-19.609,13.717-28.863c0.084-0.053,0.155-0.122,0.238-0.177
			c0.075-0.05,0.166-0.069,0.239-0.12c0.081-0.057,0.161-0.116,0.239-0.177l67.923-53.432l342.712-27.254
			c9.247-0.721,16.856-8.024,17.951-17.234l26.536-219.51c0.672-5.507-1.057-11.043-4.652-15.207
			c-3.593-4.164-8.784-6.66-14.312-6.797l-480.705-11.988L198.449,262.82c0-0.02,0-0.04,0-0.06
			c-2.498-6.378-8.158-11.007-14.909-12.165L77.392,232.467c-0.019-0.004-0.04,0.004-0.059,0c-1.051-0.188-2.151-0.283-3.221-0.298
			H74.114z M325.944,421.028v69.354h-36.078l-27.67-70.965L325.944,421.028z M406.33,423.056v67.326h-66.61v-68.995L406.33,423.056z
			 M486.716,425.024v65.358h-66.61v-67.028L486.716,425.024z M567.102,427.05v63.332h-66.61v-65.001L567.102,427.05z
			 M647.488,429.079v61.303h-66.61v-62.973L647.488,429.079z M717.319,430.808l-7.215,59.574h-48.84v-61.005L717.319,430.808z
			 M700.919,566.415h-39.656v-62.318h47.171L700.919,566.415z M647.488,566.415h-66.61v-62.318h66.61
			C647.488,504.097,647.488,566.415,647.488,566.415z M567.102,566.415h-66.61v-62.318h66.61V566.415z M486.716,566.415h-66.61
			v-62.318h66.61V566.415z M406.33,566.415h-66.61v-62.318h66.61V566.415z M325.944,566.415h-6.44l-24.33-62.318h30.771V566.415z
			 M694.181,622.232l-32.918,2.624V580.13h37.986L694.181,622.232z M647.488,625.928l-66.61,5.307V580.13h66.61
			C647.488,580.13,647.488,625.928,647.488,625.928z M567.102,632.369l-66.61,5.248V580.13h66.61V632.369z M486.716,638.75
			l-66.61,5.307V580.13h66.61V638.75z M406.33,645.131l-48.72,3.876c-1.817,0.147-3.607,0.635-5.248,1.431l-12.642-32.381V580.13
			h66.61V645.131z M325.944,582.933l-1.013-2.803h1.013V582.933z M686.787,856.234c0,12.997-10.379,23.315-23.376,23.315
			s-23.376-10.318-23.376-23.315c0-12.997,10.379-23.376,23.376-23.376C676.408,832.858,686.787,843.237,686.787,856.234z
			 M309.724,856.234c0,12.997-10.379,23.315-23.376,23.315c-12.997,0-23.376-10.318-23.376-23.315
			c0-12.997,10.379-23.376,23.376-23.376C299.345,832.858,309.724,843.237,309.724,856.234z M650.709,856.65
			c0,7.063,5.641,12.642,12.701,12.642c7.06,0,12.701-5.58,12.701-12.642c0-7.061-5.641-12.701-12.701-12.701
			C656.35,843.948,650.709,849.589,650.709,856.65z M273.646,856.65c0,7.063,5.641,12.642,12.702,12.642
			c7.06,0,12.701-5.58,12.701-12.642c0-7.061-5.641-12.701-12.701-12.701C279.287,843.948,273.646,849.589,273.646,856.65z"/>
	</g>
</g>
</svg>
