<?xml version="1.0" encoding="utf-8"?>
<!-- Generator: Adobe Illustrator 17.1.0, SVG Export Plug-In . SVG Version: 6.00 Build 0)  -->
<!DOCTYPE svg PUBLIC "-//W3C//DTD SVG 1.1//EN" "http://www.w3.org/Graphics/SVG/1.1/DTD/svg11.dtd">
<svg version="1.1" id="Layer_1" xmlns="http://www.w3.org/2000/svg" xmlns:xlink="http://www.w3.org/1999/xlink" x="0px" y="0px"
	 viewBox="0 0 100 100" enable-background="new 0 0 100 100" xml:space="preserve">
<circle fill="#FFFFFF" cx="30.431" cy="20.422" r="10.959"/>
<path fill="#FFFFFF" stroke="#FFFFFF" stroke-miterlimit="10" d="M38.966,29.935c-2.33,1.894-5.299,3.033-8.536,3.033
	c-3.241,0-6.214-1.141-8.546-3.04C14.533,33.218,9.4,40.644,9.4,49.5c0,11,42.035,11,42.035,0
	C51.435,40.65,46.31,33.229,38.966,29.935z"/>
<circle fill="#FFFFFF" cx="70.431" cy="52.422" r="10.959"/>
<path fill="#FFFFFF" stroke="#FFFFFF" stroke-miterlimit="10" d="M78.966,61.935c-2.33,1.894-5.299,3.033-8.536,3.033
	c-3.241,0-6.214-1.141-8.546-3.04C54.533,65.218,49.4,72.644,49.4,81.5c0,11,42.035,11,42.035,0
	C91.435,72.65,86.31,65.229,78.966,61.935z"/>
</svg>
